<?xml version="1.0" encoding="UTF-8"?>
<svg version="1.1" xmlns="http://www.w3.org/2000/svg" width="300" height="281">
<path d="M0 0 C0.66547852 0.18191895 1.33095703 0.36383789 2.01660156 0.55126953 C36.68340056 10.21548181 65.96026914 34.93041252 83.75 65.8125 C100.00032457 95.13404948 105.77180652 132.87489072 97.3203125 165.58203125 C96.89251088 167.05830828 96.45214966 168.53099735 96 170 C95.75862305 170.78681152 95.51724609 171.57362305 95.26855469 172.38427734 C88.43232587 193.86895369 77.46955875 211.63441911 62 228 C61.25363281 228.81082031 60.50726563 229.62164062 59.73828125 230.45703125 C38.48697449 252.76212182 6.3324422 268.23671826 -24.60928345 269.38339233 C-28.49054235 269.46880028 -32.36809447 269.46876653 -36.25 269.4375 C-37.47139679 269.43243942 -37.47139679 269.43243942 -38.71746826 269.42727661 C-50.86857475 269.35436818 -62.36732197 268.80340826 -74 265 C-74.76828125 264.75862305 -75.5365625 264.51724609 -76.328125 264.26855469 C-97.84847925 257.36989274 -115.58456159 246.51813148 -132 231 C-132.82242188 230.24203125 -133.64484375 229.4840625 -134.4921875 228.703125 C-153.33925681 210.73675987 -165.34587195 186.1865704 -171 161 C-171.17805176 160.24009766 -171.35610352 159.48019531 -171.53955078 158.69726562 C-173.33971249 150.17103055 -173.39677893 141.67147038 -173.375 133 C-173.37478851 132.22442749 -173.37457703 131.44885498 -173.37435913 130.64978027 C-173.34174806 118.66930839 -172.52586121 107.51626813 -169 96 C-168.81808105 95.35305176 -168.63616211 94.70610352 -168.44873047 94.03955078 C-158.68288007 59.33107263 -134.16026145 30.0919639 -103.1875 12.25 C-72.49514495 -4.76004007 -33.86848194 -9.71662954 0 0 Z " fill="#FDCD2F" transform="translate(186,9)"/>
<path d="M0 0 C0.66547852 0.18191895 1.33095703 0.36383789 2.01660156 0.55126953 C36.68340056 10.21548181 65.96026914 34.93041252 83.75 65.8125 C100.00032457 95.13404948 105.77180652 132.87489072 97.3203125 165.58203125 C96.89251088 167.05830828 96.45214966 168.53099735 96 170 C95.75862305 170.78681152 95.51724609 171.57362305 95.26855469 172.38427734 C88.43232587 193.86895369 77.46955875 211.63441911 62 228 C61.25363281 228.81082031 60.50726563 229.62164062 59.73828125 230.45703125 C38.48697449 252.76212182 6.3324422 268.23671826 -24.60928345 269.38339233 C-28.49054235 269.46880028 -32.36809447 269.46876653 -36.25 269.4375 C-37.47139679 269.43243942 -37.47139679 269.43243942 -38.71746826 269.42727661 C-50.86857475 269.35436818 -62.36732197 268.80340826 -74 265 C-74.76828125 264.75862305 -75.5365625 264.51724609 -76.328125 264.26855469 C-97.84847925 257.36989274 -115.58456159 246.51813148 -132 231 C-132.82242188 230.24203125 -133.64484375 229.4840625 -134.4921875 228.703125 C-153.33925681 210.73675987 -165.34587195 186.1865704 -171 161 C-171.17805176 160.24009766 -171.35610352 159.48019531 -171.53955078 158.69726562 C-173.33971249 150.17103055 -173.39677893 141.67147038 -173.375 133 C-173.37478851 132.22442749 -173.37457703 131.44885498 -173.37435913 130.64978027 C-173.34174806 118.66930839 -172.52586121 107.51626813 -169 96 C-168.81808105 95.35305176 -168.63616211 94.70610352 -168.44873047 94.03955078 C-158.68288007 59.33107263 -134.16026145 30.0919639 -103.1875 12.25 C-72.49514495 -4.76004007 -33.86848194 -9.71662954 0 0 Z M31 23 C30.82984375 23.88300781 30.6596875 24.76601563 30.484375 25.67578125 C28.92203207 33.41270288 26.9447909 40.67539319 24 48 C19.85272776 47.08241177 16.36309038 45.20694251 12.625 43.25 C-3.02059162 35.26083785 -17.34105634 31.64510317 -34.9375 31.75 C-36.23107422 31.74226563 -37.52464844 31.73453125 -38.85742188 31.7265625 C-65.58698354 31.78069832 -88.94601694 43.15829748 -108.30859375 61.25390625 C-127.54364309 80.87979839 -138.61917754 107.27505961 -138.35131836 134.80932617 C-137.56795087 161.96515606 -127.31496879 186.14005685 -109 206 C-108.40703125 206.67417969 -107.8140625 207.34835938 -107.203125 208.04296875 C-91.09999889 225.46144922 -64.42999389 235.89647094 -41.1484375 237.21875 C-13.90448217 238.06912081 12.76443913 229.58367835 33 211 C33.4856543 210.56204102 33.97130859 210.12408203 34.47167969 209.67285156 C51.40301557 194.26392224 60.98178401 175.15029747 66 153 C66.1743457 152.23598877 66.34869141 151.47197754 66.52832031 150.68481445 C69.44777885 134.06717183 67.90059422 115.76176098 62 100 C61.60651367 98.93604004 61.60651367 98.93604004 61.20507812 97.85058594 C57.30471806 87.60395655 52.30101704 77.53916589 44.65234375 69.546875 C43 67 43 67 43.484375 64.08984375 C44.11085937 62.52943359 44.11085937 62.52943359 44.75 60.9375 C47.23621217 53.77040629 48.68877577 46.98513616 46.1875 39.6015625 C43.01413236 33.32093904 38.09956484 27.79900109 33 23 C32.34 23 31.68 23 31 23 Z " fill="#072D65" transform="translate(186,9)"/>
<path d="M0 0 C0.33 15.51 0.66 31.02 1 47 C6.35198878 39.0932236 6.35198878 39.0932236 9.75 30.8125 C10.13671875 29.66394531 10.5234375 28.51539062 10.921875 27.33203125 C11.27765625 26.23246094 11.6334375 25.13289063 12 24 C12.6659824 21.99977204 13.33242307 19.99969635 14 18 C17.1478725 20.86170227 18.7898839 23.35571939 19.3359375 27.62890625 C19.56112443 44.54044479 10.60941923 56.59876775 0 69 C2.97 69 5.94 69 9 69 C9 71.31 9 73.62 9 76 C6.03 76 3.06 76 0 76 C0 100.75 0 125.5 0 151 C-20.79527211 151 -38.87163785 143.73896158 -53.84375 129.2109375 C-63.07400408 119.35134792 -69.27008035 107.89799945 -73 95 C-73.36738281 93.79537109 -73.36738281 93.79537109 -73.7421875 92.56640625 C-78.31877728 74.47947266 -74.5711806 54.2066428 -66 38 C-54.59965136 20.13508585 -38.45198247 6.66081023 -17.625 1.8125 C-16.56925781 1.54663086 -16.56925781 1.54663086 -15.4921875 1.27539062 C-9.99811559 -0.02293476 -5.90393181 0 0 0 Z " fill="#FEFEFD" transform="translate(150,67)"/>
<path d="M0 0 C6.80726268 2.88700873 12.39142699 10.10803934 15.37890625 16.7734375 C17.59553462 24.7198411 16.15923531 32.55323105 13 40 C12.34 40 11.68 40 11 40 C11 40.66 11 41.32 11 42 C10.01 42 9.02 42 8 42 C7.67322266 43.04607422 7.67322266 43.04607422 7.33984375 44.11328125 C5.66294076 47.72620051 3.27724601 50.33558967 0.5625 53.1875 C0.02391357 53.75847412 -0.51467285 54.32944824 -1.06958008 54.91772461 C-13.42605903 67.87943365 -27.18703691 78.55858007 -43 87 C-43 85 -43 85 -41 82.9375 C-40.53980469 82.49019531 -40.07960937 82.04289062 -39.60546875 81.58203125 C-26.01494038 68.18990475 -9.13166315 45.71460337 -6.0625 26.4375 C-5.07486599 20.96366405 -3.51340137 15.71406114 -1.90234375 10.39453125 C-0.98304172 6.93620458 -0.43738515 3.54868154 0 0 Z " fill="#FBF9ED" transform="translate(217,32)"/>
<path d="M0 0 C-0.33 0.66 -0.66 1.32 -1 2 C-3.4140625 2.2734375 -3.4140625 2.2734375 -6.625 2.375 C-28.36597757 3.82123733 -47.91183353 14.12357302 -62.8125 29.8125 C-79.09356717 48.84698295 -85.42957329 71.8376282 -83.76171875 96.52734375 C-81.22824482 118.86797748 -69.19925218 139.72368093 -51.765625 153.8046875 C-31.10877876 168.99354503 -7.71995646 173.68769343 17.39453125 170.38671875 C36.80841414 167.25071567 54.09065119 157.95900666 66 142 C76.09370953 126.47410788 80.95900608 110.24596354 84 92 C61.89 92 39.78 92 17 92 C17 91.34 17 90.68 17 90 C39.77 90 62.54 90 86 90 C84.06614763 117.07393317 75.96205163 138.5368809 55.6875 157.1875 C36.34207719 172.85862054 12.05553572 175.62007478 -12 174 C-31.11353715 171.55546157 -47.29941179 162.12973037 -61 149 C-61.7115625 148.35160156 -62.423125 147.70320312 -63.15625 147.03515625 C-77.32944627 133.70690052 -86.50375239 112.21436959 -87.203125 92.8203125 C-87.66287516 65.34658027 -79.14634214 42.75911933 -60.0625 22.75 C-43.80296971 7.09503151 -22.41750732 -1.14472378 0 0 Z " fill="#FAF8E6" transform="translate(151,55)"/>
<path d="M0 0 C0.66 0 1.32 0 2 0 C3.375 1.46875 3.375 1.46875 5 3.5 C9.09326616 8.31560725 13.70925374 12.5221668 19 16 C19.99 16 20.98 16 22 16 C23.6875 18.5 23.6875 18.5 25 21 C15.18033546 18.26431633 6.47099562 9.73181998 0 2 C0 1.34 0 0.68 0 0 Z M15 6 C19.67105792 7.55701931 23.08705685 10.08447373 27 13 C25.625 14.5 25.625 14.5 24 16 C23.34 16 22.68 16 22 16 C20.515 13.03 20.515 13.03 19 10 C18.34 10 17.68 10 17 10 C17 9.34 17 8.68 17 8 C16.34 8 15.68 8 15 8 C15 7.34 15 6.68 15 6 Z " fill="#FACB22" transform="translate(86,195)"/>
<path d="M0 0 C0.80219971 0.1071936 0.80219971 0.1071936 1.62060547 0.21655273 C9.78630453 1.17905278 17.91939011 1.11244227 26.125 1.0625 C27.57291511 1.05747252 29.02083192 1.05291183 30.46875 1.04882812 C33.97920259 1.03792705 37.48959007 1.02073202 41 1 C40.67 1.66 40.34 2.32 40 3 C33.95167438 4.36967952 27.85654373 4.22112209 21.6875 4.25 C20.59759766 4.270625 19.50769531 4.29125 18.38476562 4.3125 C11.58237696 4.34522346 6.32324768 3.5319643 0 1 C0 0.67 0 0.34 0 0 Z " fill="#FBFAEF" transform="translate(130,225)"/>
<path d="M0 0 C4.52615993 3.67832017 8.39424999 7.41086363 12 12 C9 12 9 12 6.73828125 10.13671875 C5.93777344 9.32847656 5.13726562 8.52023438 4.3125 7.6875 C3.50425781 6.88699219 2.69601563 6.08648437 1.86328125 5.26171875 C0 3 0 3 0 0 Z " fill="#FBFAEE" transform="translate(85,196)"/>
<path d="M0 0 C0.66 0 1.32 0 2 0 C3 3 3 3 2 6 C1.34 6 0.68 6 0 6 C-0.33 8.97 -0.66 11.94 -1 15 C-1.66 15 -2.32 15 -3 15 C-2.44854729 9.76119922 -1.57077907 5.02649303 0 0 Z " fill="#E9C831" transform="translate(53,110)"/>
<path d="M0 0 C2.51620531 1.25810265 2.80835636 2.30353155 4 4.8125 C4.495 5.84310547 4.495 5.84310547 5 6.89453125 C5.33 7.58933594 5.66 8.28414062 6 9 C6.391875 9.68449219 6.78375 10.36898437 7.1875 11.07421875 C8 13 8 13 7 16 C5.82558465 13.89983377 4.66035988 11.79541245 3.5 9.6875 C3.16613281 9.09259766 2.83226562 8.49769531 2.48828125 7.88476562 C0.93174886 5.04171156 0 3.29339012 0 0 Z " fill="#E9CD31" transform="translate(57,183)"/>
<path d="M0 0 C0.66 0 1.32 0 2 0 C2 2.31 2 4.62 2 7 C-0.97 7 -3.94 7 -7 7 C-7 6.67 -7 6.34 -7 6 C-3.535 5.505 -3.535 5.505 0 5 C-0.2784375 4.0409375 -0.2784375 4.0409375 -0.5625 3.0625 C-0.706875 2.381875 -0.85125 1.70125 -1 1 C-0.67 0.67 -0.34 0.34 0 0 Z " fill="#FAF4DA" transform="translate(157,136)"/>
<path d="M0 0 C2 1 2 1 3.1875 3.75 C4.01105448 7.04421792 3.94405381 8.79021705 3 12 C0.60926555 8.17482487 0.44033448 4.40334476 0 0 Z " fill="#ECCC2E" transform="translate(246,108)"/>
<path d="M0 0 C1.62723299 0.45034123 3.25173664 0.91055354 4.875 1.375 C5.77992187 1.63023437 6.68484375 1.88546875 7.6171875 2.1484375 C10 3 10 3 12 5 C6.25 5.125 6.25 5.125 4 4 C4 3.34 4 2.68 4 2 C2.68 1.67 1.36 1.34 0 1 C0 0.67 0 0.34 0 0 Z " fill="#FBCA23" transform="translate(115,222)"/>
<path d="M0 0 C-1.65519326 3.31038651 -4.65442221 3.78867011 -8 5 C-8.99 4.67 -9.98 4.34 -11 4 C-10.34 4 -9.68 4 -9 4 C-8.67 3.01 -8.34 2.02 -8 1 C-5.07175348 0.02391783 -3.04386724 -0.08226668 0 0 Z " fill="#FBCA22" transform="translate(128,69)"/>
<path d="M0 0 C3.3 1.65 6.6 3.3 10 5 C7 6 7 6 4.4375 5.3125 C2 4 2 4 0 0 Z " fill="#EDCE31" transform="translate(196,51)"/>
<path d="M0 0 C0.93423645 3.01031744 1.04449911 3.86650268 0 7 C-1.32 6.67 -2.64 6.34 -4 6 C-3.67 4.68 -3.34 3.36 -3 2 C-2.01 2 -1.02 2 0 2 C0 1.34 0 0.68 0 0 Z " fill="#F1CB36" transform="translate(228,72)"/>
<path d="M0 0 C0 3.57575896 -1.08840607 5.05295935 -3 8 C-3.99 7.67 -4.98 7.34 -6 7 C-4.02 4.69 -2.04 2.38 0 0 Z " fill="#DDC539" transform="translate(81,67)"/>
<path d="M0 0 C2.625 0.375 2.625 0.375 5 1 C5.33 1.99 5.66 2.98 6 4 C3.36 3.34 0.72 2.68 -2 2 C-1.34 1.34 -0.68 0.68 0 0 Z " fill="#FAF3CF" transform="translate(125,223)"/>
</svg>
